<?xml version="1.0" standalone="no"?>
<!DOCTYPE svg PUBLIC "-//W3C//DTD SVG 20010904//EN"
 "http://www.w3.org/TR/2001/REC-SVG-20010904/DTD/svg10.dtd">
<svg version="1.0" xmlns="http://www.w3.org/2000/svg"
 width="4053.000000pt" height="4053.000000pt" viewBox="0 0 4053.000000 4053.000000"
 preserveAspectRatio="xMidYMid meet">
<metadata>
Created by potrace 1.14, written by Peter Selinger 2001-2017
</metadata>
<g transform="translate(0.000000,4053.000000) scale(0.100000,-0.100000)"
fill="#000000" stroke="none">
<path d="M13570 40462 c-25 -37 -90 -131 -145 -210 -55 -79 -104 -151 -110
-160 -5 -10 -12 -19 -15 -22 -3 -3 -23 -32 -44 -64 -21 -33 -43 -64 -47 -70
-10 -12 -57 -79 -289 -416 -80 -116 -229 -331 -331 -478 -102 -147 -223 -324
-270 -392 -46 -68 -89 -131 -96 -140 -7 -8 -116 -166 -243 -350 -127 -184
-237 -343 -245 -353 -8 -9 -15 -19 -15 -22 0 -3 -22 -36 -49 -73 -51 -72 -165
-235 -237 -342 -24 -36 -95 -138 -157 -227 -61 -90 -220 -319 -352 -510 -132
-191 -275 -397 -317 -457 -42 -61 -112 -163 -156 -226 -365 -530 -564 -818
-576 -835 -8 -11 -60 -85 -114 -164 -55 -79 -105 -151 -111 -160 -33 -47 -168
-243 -199 -291 -21 -30 -41 -60 -47 -66 -5 -6 -55 -77 -110 -158 -55 -80 -140
-205 -190 -276 -49 -71 -130 -188 -180 -260 -49 -72 -106 -153 -125 -180 -19
-27 -64 -92 -100 -144 -36 -53 -146 -213 -245 -356 -99 -142 -283 -409 -410
-592 -126 -183 -233 -334 -237 -336 -4 -2 -8 -7 -8 -12 0 -5 -54 -86 -120
-182 -66 -95 -125 -180 -130 -188 -6 -8 -39 -55 -73 -105 -119 -169 -712
-1027 -727 -1051 -8 -13 -38 -56 -66 -96 -200 -288 -250 -361 -259 -376 -5 -9
-13 -19 -16 -22 -3 -3 -39 -54 -81 -115 -113 -164 -191 -278 -272 -395 -40
-58 -119 -172 -176 -255 -130 -189 -192 -279 -263 -380 -31 -44 -77 -111 -104
-150 -74 -107 -191 -278 -205 -298 -7 -9 -37 -52 -66 -95 -117 -169 -281 -408
-289 -417 -4 -6 -32 -46 -62 -90 -30 -44 -79 -116 -110 -160 -30 -44 -103
-150 -162 -235 -59 -85 -122 -175 -139 -200 -17 -25 -63 -90 -100 -145 -38
-55 -74 -107 -80 -115 -6 -8 -127 -184 -269 -390 -143 -206 -278 -402 -301
-435 -23 -33 -118 -170 -210 -305 -93 -135 -173 -249 -177 -255 -5 -5 -31 -44
-59 -85 -60 -88 -216 -314 -572 -827 -81 -117 -184 -266 -228 -330 -96 -139
-581 -842 -639 -926 -22 -32 -81 -117 -132 -190 -96 -138 -208 -301 -347 -502
-45 -66 -140 -203 -211 -305 -71 -102 -139 -201 -152 -220 -12 -19 -27 -40
-31 -46 -5 -5 -22 -30 -38 -55 -16 -24 -33 -48 -37 -54 -5 -5 -83 -118 -174
-250 -92 -132 -194 -280 -227 -328 -34 -48 -65 -96 -71 -105 -5 -9 -13 -19
-16 -22 -9 -8 -89 -128 -89 -134 0 -4 1050 -6 2334 -6 l2333 0 46 68 c53 79
173 254 355 517 73 105 137 198 144 209 7 10 20 28 29 40 9 11 91 131 184 266
93 135 189 274 214 310 25 36 79 115 121 175 42 61 97 140 123 178 63 89 120
172 199 287 99 143 236 343 248 360 17 25 228 329 330 477 52 76 133 193 180
260 47 67 150 217 230 333 80 116 270 391 424 613 153 221 312 452 354 512 42
61 104 151 139 200 108 156 218 316 228 333 6 9 13 19 16 22 3 3 43 61 90 130
46 69 87 127 90 130 3 3 44 61 91 130 47 69 160 233 251 364 91 132 170 247
176 255 53 77 181 262 229 331 106 154 927 1341 1047 1515 45 66 96 140 114
165 17 25 51 74 75 110 25 36 141 205 259 375 119 171 239 345 269 388 29 44
58 84 63 90 6 7 28 39 50 72 22 33 107 156 189 275 82 118 182 262 222 320 40
58 99 143 131 190 54 79 396 573 436 630 9 14 37 54 61 90 25 36 81 117 125
180 44 63 114 165 156 225 41 61 89 130 106 155 18 25 50 72 73 105 22 33 46
65 51 72 6 6 44 61 85 122 41 61 150 220 242 354 93 133 172 249 178 257 5 8
41 60 80 115 80 114 84 120 109 158 21 32 11 41 107 -98 37 -55 72 -104 76
-110 5 -5 50 -71 101 -145 51 -74 118 -171 148 -215 31 -44 76 -109 100 -143
24 -35 49 -71 54 -80 6 -10 12 -19 15 -22 3 -3 14 -18 24 -35 11 -16 23 -34
28 -40 5 -5 77 -109 160 -230 83 -121 175 -254 203 -295 29 -41 116 -167 193
-280 77 -113 145 -209 149 -215 5 -5 83 -118 173 -249 91 -132 197 -285 235
-341 39 -55 117 -170 175 -253 129 -187 292 -424 385 -557 106 -153 139 -201
221 -320 41 -60 102 -148 135 -195 33 -47 81 -116 107 -155 25 -38 49 -72 52
-75 3 -3 31 -43 63 -90 32 -47 109 -159 172 -250 63 -91 135 -194 159 -230 25
-36 85 -123 135 -195 49 -71 124 -179 166 -240 41 -60 89 -130 106 -155 29
-42 297 -428 533 -770 55 -80 102 -147 105 -150 3 -3 14 -20 24 -38 19 -33 19
-33 -7 -67 -14 -18 -26 -36 -26 -40 0 -3 -5 -11 -11 -18 -12 -15 -132 -184
-217 -309 -35 -51 -135 -196 -223 -323 -87 -126 -163 -237 -169 -245 -27 -40
-183 -266 -242 -350 -36 -52 -120 -174 -186 -270 -66 -96 -130 -188 -142 -205
-12 -16 -113 -163 -225 -325 -112 -162 -218 -315 -235 -340 -17 -25 -164 -236
-325 -470 -355 -515 -368 -533 -427 -618 -26 -37 -117 -168 -202 -292 -85
-124 -164 -238 -176 -255 -44 -64 -141 -202 -280 -405 -125 -181 -350 -506
-477 -690 -21 -30 -67 -97 -104 -150 -72 -106 -970 -1405 -1064 -1540 -17 -25
-56 -81 -87 -125 -137 -198 -178 -260 -178 -268 0 -5 50 -81 112 -170 62 -89
171 -247 243 -352 72 -104 147 -212 166 -240 20 -27 75 -108 124 -180 49 -71
91 -132 94 -135 4 -3 24 -32 45 -64 21 -33 43 -64 48 -70 5 -6 72 -103 149
-216 163 -237 243 -353 321 -465 30 -44 94 -136 141 -205 48 -69 93 -134 101
-145 8 -11 88 -126 177 -255 89 -129 194 -282 234 -340 40 -58 127 -184 193
-280 66 -96 141 -204 167 -240 25 -36 100 -144 166 -240 66 -96 127 -184 135
-195 18 -26 518 -750 644 -932 52 -76 97 -140 100 -143 3 -3 10 -13 15 -22 6
-9 34 -52 64 -95 30 -43 230 -332 445 -643 417 -604 586 -848 636 -920 25 -36
135 -196 200 -290 6 -8 51 -73 101 -145 50 -71 115 -167 146 -212 l56 -82 -49
-71 c-27 -39 -84 -121 -127 -183 -43 -61 -107 -155 -143 -207 -36 -52 -112
-162 -169 -245 -57 -82 -134 -195 -172 -250 -38 -55 -141 -203 -229 -330 -188
-272 -194 -280 -216 -314 -20 -30 -27 -39 -74 -106 -19 -27 -101 -146 -182
-263 -81 -117 -174 -252 -208 -300 -33 -48 -152 -220 -264 -382 -292 -425
-949 -1374 -1095 -1585 -100 -143 -240 -346 -553 -800 -253 -367 -301 -436
-386 -557 -116 -168 -181 -261 -242 -353 -37 -55 -70 -102 -73 -105 -3 -3 -30
-41 -60 -85 -30 -44 -56 -82 -57 -84 -4 -5 -53 52 -54 62 0 4 -5 13 -11 20 -6
7 -65 91 -131 187 -203 295 -234 340 -573 830 -181 261 -431 624 -556 805
-126 182 -241 348 -257 370 -16 22 -71 102 -123 178 -52 76 -115 168 -141 205
-87 124 -226 326 -413 597 -55 81 -120 175 -145 210 -25 35 -88 126 -140 202
-52 76 -98 139 -102 141 -4 2 -8 7 -8 12 0 8 -41 67 -327 478 -62 89 -113 166
-113 171 0 5 -4 11 -8 13 -4 2 -42 53 -84 113 -41 61 -145 211 -231 335 -85
124 -174 252 -197 285 -64 93 -148 214 -233 337 -43 62 -124 178 -178 258 -55
80 -107 154 -115 165 -8 11 -104 151 -213 310 -110 160 -203 295 -208 300 -5
6 -27 37 -49 70 -68 101 -288 420 -294 425 -3 3 -17 23 -32 45 -23 35 -335
488 -496 720 -31 44 -74 107 -96 140 -23 33 -43 62 -46 65 -3 3 -32 45 -65 93
-33 49 -67 98 -75 110 -8 12 -77 111 -153 221 -76 109 -135 201 -132 204 3 3
930 5 2060 5 1469 0 2055 3 2058 11 2 6 3 862 3 1901 l-1 1890 -5712 0 c-3142
0 -5713 -3 -5713 -6 0 -3 120 -180 268 -392 147 -213 312 -452 367 -532 55
-80 119 -174 143 -208 60 -86 270 -389 282 -407 5 -8 33 -49 62 -90 29 -41 67
-95 83 -120 17 -25 34 -49 38 -55 8 -10 90 -128 242 -351 44 -64 85 -122 90
-128 6 -7 15 -19 20 -29 11 -18 342 -498 363 -525 7 -9 52 -75 101 -147 49
-71 104 -150 121 -175 74 -105 157 -225 180 -260 14 -21 53 -78 87 -127 78
-112 95 -137 379 -548 129 -187 241 -348 249 -357 7 -9 19 -27 26 -39 6 -13
16 -28 21 -33 9 -11 142 -201 163 -234 18 -28 184 -267 192 -277 5 -5 25 -35
45 -65 20 -30 73 -107 117 -170 44 -63 109 -158 145 -210 36 -52 82 -120 103
-150 22 -30 68 -98 104 -150 36 -52 148 -214 249 -360 101 -146 214 -310 252
-365 38 -55 116 -167 173 -250 57 -82 129 -186 159 -230 30 -44 78 -114 107
-155 29 -41 122 -176 207 -300 86 -124 176 -254 201 -290 25 -36 78 -112 118
-170 39 -58 76 -109 80 -115 4 -5 25 -37 47 -69 21 -33 43 -64 48 -70 5 -6 68
-96 140 -201 72 -104 168 -244 214 -310 46 -66 108 -156 138 -200 30 -44 81
-118 113 -165 33 -47 151 -218 263 -380 201 -291 262 -380 327 -473 18 -26
115 -165 215 -310 99 -144 265 -383 367 -531 102 -148 213 -307 245 -355 81
-118 807 -1169 868 -1256 27 -38 80 -115 118 -170 38 -55 83 -120 100 -145 17
-25 108 -155 201 -290 93 -135 173 -252 179 -260 6 -8 87 -125 180 -260 92
-135 172 -249 177 -255 4 -5 20 -28 35 -50 50 -74 267 -390 275 -400 5 -5 49
-68 98 -140 77 -114 568 -824 693 -1005 25 -36 140 -202 256 -370 115 -168
212 -307 215 -310 3 -3 29 -39 56 -80 37 -56 363 -529 455 -660 6 -8 48 -69
93 -135 46 -66 99 -142 118 -170 19 -27 65 -93 100 -145 36 -52 147 -212 245
-355 99 -143 206 -298 239 -345 32 -47 70 -101 84 -120 14 -19 31 -43 36 -52
6 -10 30 -46 54 -80 84 -120 152 -218 219 -316 248 -362 548 -792 552 -792 3
0 25 31 50 68 50 73 152 222 300 434 52 76 140 203 195 283 55 80 130 189 167
243 38 53 73 104 78 112 6 8 39 56 73 105 35 50 180 259 322 465 142 206 293
425 335 485 42 61 103 148 135 195 77 112 141 204 180 260 17 25 61 88 96 140
36 52 81 118 100 145 19 28 111 160 204 295 93 135 173 247 177 248 4 2 8 8 8
12 0 5 31 53 68 107 220 317 714 1032 766 1108 33 50 63 92 67 95 3 3 20 27
38 54 18 27 56 83 85 125 29 42 77 112 107 156 30 44 57 82 60 85 3 3 45 64
94 135 49 72 106 155 127 185 21 30 60 87 86 125 27 39 129 187 228 330 223
321 248 358 354 512 74 107 310 448 548 792 40 58 93 135 118 171 200 291 270
392 344 498 47 68 120 173 163 235 42 62 83 120 90 130 6 10 101 147 210 305
109 158 205 296 213 307 8 11 82 119 166 240 83 121 180 261 214 310 34 50 67
90 74 90 7 0 45 -47 84 -105 40 -58 88 -127 107 -155 20 -27 71 -102 114 -165
82 -119 574 -831 594 -859 6 -9 20 -29 31 -46 15 -23 468 -678 528 -762 17
-25 157 -228 347 -503 89 -129 211 -306 271 -392 60 -87 152 -220 204 -295 52
-76 98 -142 103 -148 6 -8 342 -495 595 -863 31 -46 77 -112 102 -147 25 -35
105 -151 178 -257 73 -106 204 -294 289 -418 86 -124 195 -281 241 -350 47
-69 89 -127 92 -130 4 -3 9 -12 13 -20 4 -8 22 -35 39 -60 44 -60 696 -1001
728 -1050 14 -21 52 -77 85 -124 33 -48 98 -142 144 -209 47 -67 88 -123 93
-125 4 -2 8 -8 8 -12 0 -8 338 -502 383 -561 7 -8 17 -23 22 -32 6 -9 62 -91
125 -182 63 -91 178 -257 255 -368 76 -111 202 -293 280 -404 77 -112 239
-347 360 -523 121 -176 222 -320 225 -320 3 0 25 28 48 62 23 35 56 83 73 108
18 25 102 146 187 270 85 124 210 304 277 400 67 96 152 220 190 275 38 55
128 186 200 290 73 105 157 226 187 270 112 163 419 606 451 652 18 27 88 127
154 223 67 96 141 204 166 240 25 36 90 129 144 208 54 79 133 193 176 255 42
62 94 137 115 167 83 120 199 288 347 501 85 123 159 231 165 239 6 8 65 94
131 190 67 96 158 228 203 293 111 161 175 254 360 522 314 453 630 911 670
970 23 33 44 64 49 70 16 22 131 187 282 407 270 393 307 446 468 678 86 124
196 282 244 353 48 70 108 155 131 190 24 34 124 179 223 322 98 143 182 265
187 270 4 6 68 98 142 205 73 107 147 213 162 235 16 22 53 76 83 120 30 44
86 125 124 180 39 55 99 143 135 195 36 52 120 175 188 272 68 98 168 243 223
323 55 80 136 197 180 260 44 63 152 219 240 346 88 128 224 325 302 438 79
113 147 213 153 221 5 8 30 44 55 80 25 36 50 72 55 80 6 8 79 114 163 235 84
121 191 275 237 343 135 195 196 284 340 492 74 107 148 215 165 240 16 25 33
50 38 55 5 6 125 179 267 385 142 206 269 389 282 407 12 17 52 75 88 127 67
99 280 407 302 438 7 9 49 70 93 134 44 64 134 195 200 290 66 95 145 210 175
254 30 44 112 162 182 263 70 100 151 217 180 259 80 117 165 239 188 273 12
17 98 140 190 275 93 135 185 268 204 295 20 28 130 187 246 355 115 168 215
312 221 321 21 30 682 986 827 1197 81 117 208 300 282 407 74 107 160 231
190 275 70 102 187 272 197 285 5 6 26 37 49 70 23 33 60 87 82 119 23 33 39
62 37 65 -2 4 -2619 6 -5817 6 l-5813 0 -3 -1901 -2 -1901 2165 0 c1191 0
2168 -2 2171 -6 3 -3 1 -12 -5 -19 -7 -7 -69 -96 -139 -198 -71 -102 -304
-439 -518 -750 -215 -311 -415 -601 -445 -645 -30 -44 -57 -82 -60 -85 -6 -5
-168 -241 -184 -268 -5 -9 -14 -22 -20 -28 -5 -7 -29 -41 -53 -76 -76 -110
-451 -653 -459 -663 -4 -6 -26 -37 -48 -70 -46 -69 -423 -614 -457 -662 -13
-18 -42 -60 -66 -95 -133 -193 -452 -654 -459 -663 -4 -5 -31 -44 -59 -85
-102 -151 -208 -305 -214 -310 -3 -3 -29 -41 -59 -85 -30 -44 -75 -109 -99
-145 -25 -36 -124 -180 -221 -320 -96 -140 -178 -257 -182 -260 -3 -3 -12 -15
-18 -28 -7 -13 -19 -31 -26 -40 -8 -9 -98 -138 -200 -287 -206 -298 -434 -629
-565 -818 -47 -68 -132 -192 -190 -276 -138 -200 -214 -309 -240 -346 -12 -16
-72 -103 -133 -192 -62 -89 -172 -249 -245 -355 -73 -106 -205 -296 -292 -423
-87 -126 -174 -251 -192 -277 -18 -26 -58 -83 -88 -127 -30 -45 -57 -81 -60
-80 -3 0 -29 35 -58 77 -29 42 -136 196 -237 342 -102 146 -190 275 -197 287
-11 18 -174 255 -313 453 -36 51 -93 133 -187 270 -36 52 -135 195 -219 317
-85 122 -307 444 -494 714 -187 271 -375 542 -417 603 -42 61 -120 174 -173
251 -53 77 -128 185 -166 240 -38 55 -102 147 -141 205 -40 58 -76 110 -80
115 -8 10 -165 236 -304 440 -42 61 -102 148 -135 195 -33 47 -85 123 -117
170 -32 47 -116 168 -186 270 -71 102 -152 219 -181 260 -28 41 -112 163 -187
270 -74 107 -160 231 -190 275 -30 44 -113 163 -183 265 -70 102 -129 190
-131 195 -3 6 22 49 54 95 93 136 204 298 275 400 86 123 66 94 232 335 79
116 152 221 162 235 10 14 75 108 145 210 70 102 131 190 136 195 4 6 46 65
93 133 101 148 79 116 270 392 244 354 272 394 527 765 133 193 245 355 249
360 5 6 22 30 39 55 17 25 46 68 65 95 19 28 71 102 114 165 121 176 273 394
282 405 4 6 35 51 69 100 33 50 87 128 119 175 79 112 315 454 550 795 179
259 240 348 349 505 186 268 247 357 256 370 52 77 265 384 289 417 18 24 34
49 36 56 4 10 -460 12 -2328 12 l-2334 0 -104 -150 c-57 -82 -108 -157 -114
-166 -9 -15 -187 -272 -560 -809 -67 -96 -146 -211 -176 -255 -29 -44 -57 -84
-62 -90 -4 -5 -84 -120 -177 -255 -92 -135 -182 -265 -200 -290 -17 -25 -58
-83 -90 -130 -32 -47 -68 -98 -80 -115 -11 -16 -56 -82 -100 -145 -43 -63 -98
-143 -122 -177 -24 -34 -79 -114 -123 -177 -44 -64 -83 -116 -86 -116 -4 0
-44 55 -90 123 -46 67 -87 127 -91 132 -5 6 -93 132 -195 280 -502 729 -726
1052 -739 1070 -15 21 -111 160 -262 380 -132 192 -672 973 -894 1292 -242
349 -384 554 -401 583 l-19 30 88 127 c48 70 109 159 135 198 27 38 55 79 63
90 23 31 846 1223 1028 1488 43 61 81 117 86 122 4 6 42 60 83 120 42 61 136
198 210 305 75 107 162 233 194 280 59 86 109 157 258 373 45 65 87 125 92
134 6 9 15 24 22 32 7 9 57 81 112 161 275 400 316 459 321 459 3 0 28 -34 57
-77 29 -42 69 -102 90 -132 22 -30 68 -98 103 -150 36 -52 67 -97 70 -100 5
-5 38 -52 114 -165 22 -33 43 -62 46 -65 3 -3 43 -61 89 -130 47 -69 87 -127
91 -130 3 -3 27 -36 52 -75 26 -38 69 -101 95 -140 27 -38 84 -122 128 -185
44 -63 83 -116 87 -118 4 -2 8 -7 8 -12 0 -5 39 -65 88 -134 48 -68 195 -281
327 -472 132 -192 273 -396 313 -454 40 -58 110 -158 154 -222 l81 -118 2334
0 c1865 0 2333 3 2327 13 -11 19 -148 221 -154 227 -3 3 -25 34 -49 70 -24 36
-63 92 -86 125 -23 33 -83 121 -135 195 -51 74 -117 169 -145 210 -29 41 -72
104 -96 140 -24 36 -48 70 -54 76 -5 7 -39 55 -75 108 -55 82 -244 355 -282
408 -6 9 -85 124 -175 255 -90 131 -170 247 -178 258 -9 11 -38 54 -67 95 -28
41 -111 161 -183 265 -72 105 -297 431 -500 725 -203 294 -372 537 -375 540
-3 3 -26 37 -52 75 -26 39 -73 108 -106 155 -129 186 -243 352 -437 633 -22
32 -86 124 -142 205 -56 81 -128 185 -160 232 -32 47 -62 90 -66 95 -4 6 -109
156 -232 335 -123 179 -243 353 -267 386 -24 34 -49 70 -56 80 -7 11 -62 91
-123 179 -61 88 -113 165 -116 172 -2 6 23 51 57 100 34 48 91 131 127 183 98
141 162 234 235 340 255 372 363 525 370 528 4 2 8 7 8 12 0 5 44 72 98 149
197 285 284 409 371 536 127 184 230 333 318 460 41 61 110 160 152 220 41 61
164 238 273 395 108 157 281 408 385 558 103 150 204 295 223 322 19 27 60 85
90 130 30 44 80 116 110 160 71 102 191 275 290 420 44 63 83 120 88 125 4 6
42 60 83 120 41 61 120 175 175 255 56 80 167 242 249 360 82 118 177 256 211
305 35 50 104 151 155 225 51 74 121 175 156 223 35 48 63 93 63 100 0 18 32
-20 102 -123 35 -52 80 -117 99 -145 19 -27 61 -87 92 -132 31 -46 83 -120
114 -165 31 -46 71 -103 88 -128 17 -25 107 -155 200 -290 93 -135 173 -246
177 -248 4 -2 8 -8 8 -13 0 -5 34 -56 75 -114 41 -58 75 -108 75 -111 0 -3 5
-10 11 -17 6 -7 56 -78 112 -159 56 -81 149 -215 207 -298 58 -83 110 -158
115 -167 6 -10 13 -22 18 -27 24 -34 294 -423 533 -771 91 -132 172 -249 180
-260 18 -25 135 -195 269 -390 55 -81 114 -165 131 -188 17 -23 67 -96 112
-162 80 -117 210 -306 264 -382 14 -21 104 -150 199 -288 94 -137 197 -286
228 -330 30 -44 72 -105 93 -135 21 -30 52 -75 69 -100 18 -25 68 -98 113
-163 180 -262 659 -954 727 -1052 20 -27 75 -108 124 -180 49 -71 133 -193
187 -270 53 -77 115 -167 138 -200 109 -159 161 -232 179 -255 12 -14 21 -30
21 -37 0 -6 4 -13 8 -15 4 -1 68 -91 142 -198 73 -107 147 -215 164 -239 17
-23 36 -50 41 -59 6 -9 14 -21 18 -26 10 -14 271 -390 571 -826 66 -96 123
-177 126 -180 4 -3 9 -12 13 -20 4 -8 22 -35 40 -60 17 -25 97 -139 177 -255
79 -115 148 -211 152 -213 4 -2 8 -9 8 -15 0 -7 15 -31 33 -54 17 -23 47 -64
65 -90 65 -94 278 -404 357 -519 44 -64 85 -122 90 -128 6 -6 43 -61 84 -121
41 -61 78 -111 83 -113 4 -2 8 -8 8 -14 0 -6 18 -36 41 -67 38 -53 160 -228
330 -476 64 -93 267 -386 474 -685 46 -66 159 -229 397 -575 38 -55 90 -130
115 -167 l46 -68 2333 0 c1284 0 2334 2 2334 5 0 2 -30 48 -67 102 -37 54
-105 152 -150 218 -45 66 -86 125 -91 130 -4 6 -48 69 -97 140 -49 72 -190
276 -314 455 -123 179 -254 368 -290 420 -35 52 -67 97 -70 100 -3 3 -10 13
-16 22 -5 10 -28 43 -50 75 -22 32 -147 213 -278 403 -131 190 -245 354 -253
365 -20 29 -159 229 -362 525 -97 140 -179 257 -184 258 -4 2 -8 8 -8 14 0 6
-13 27 -28 47 -16 20 -62 86 -103 146 -143 210 -323 470 -329 475 -3 3 -9 12
-15 21 -5 9 -41 61 -78 115 -37 55 -108 158 -157 229 -49 72 -96 139 -104 150
-12 17 -275 397 -328 475 -10 14 -49 70 -87 125 -39 55 -95 136 -125 180 -30
44 -91 132 -135 195 -44 63 -109 158 -145 210 -80 117 -220 320 -302 437 -34
49 -123 178 -199 288 -194 280 -252 365 -400 578 -71 103 -134 195 -140 204
-5 10 -14 22 -20 29 -5 6 -55 78 -110 158 -55 81 -121 177 -147 214 -92 131
-372 536 -423 612 -16 25 -32 47 -35 50 -3 3 -19 25 -35 50 -16 25 -50 74 -76
110 -100 142 -605 873 -624 903 -10 18 -24 37 -30 44 -10 11 -358 515 -385
557 -15 24 -318 461 -360 521 -12 17 -68 98 -125 180 -57 83 -122 177 -145
210 -23 33 -78 112 -121 175 -44 63 -104 151 -135 195 -30 44 -86 125 -124
180 -38 55 -75 108 -82 117 -7 9 -42 60 -78 113 -36 52 -110 160 -164 238 -54
78 -131 189 -170 247 -39 58 -73 107 -76 110 -3 3 -34 48 -70 100 -35 52 -66
97 -70 100 -3 3 -23 33 -45 67 -22 35 -43 63 -47 63 -5 0 -8 4 -8 9 0 5 -84
131 -187 280 -335 483 -467 673 -534 770 -79 116 -414 600 -429 621 -6 8 -34
49 -63 91 -29 41 -119 173 -202 293 -311 449 -520 754 -530 769 -8 12 -273
394 -335 483 -8 12 -44 64 -79 115 -35 52 -68 96 -73 97 -4 2 -8 7 -8 12 0 7
-109 168 -186 275 -15 21 -187 271 -364 527 -58 84 -131 191 -164 238 -32 47
-93 135 -134 195 -42 61 -78 112 -81 115 -3 3 -10 13 -16 22 -5 9 -28 43 -51
75 -64 91 -327 471 -350 506 -12 18 -125 183 -253 367 -127 184 -236 342 -241
350 -6 8 -56 81 -113 162 -56 81 -144 208 -195 282 -52 75 -97 136 -101 136
-5 0 -34 -37 -65 -82 -32 -46 -127 -184 -213 -308 -86 -124 -199 -288 -251
-365 -53 -77 -98 -142 -101 -145 -3 -3 -29 -39 -57 -80 -54 -79 -147 -215
-199 -290 -17 -25 -192 -277 -387 -560 -479 -695 -770 -1115 -812 -1175 -20
-27 -45 -63 -56 -80 -19 -27 -728 -1053 -843 -1220 -27 -39 -95 -137 -152
-220 -57 -82 -135 -195 -172 -250 -38 -55 -152 -219 -253 -365 -101 -146 -205
-295 -230 -331 -192 -281 -626 -910 -638 -924 -7 -9 -63 -90 -232 -336 -115
-168 -354 -512 -432 -625 -49 -69 -88 -129 -88 -134 0 -4 -4 -10 -8 -12 -4 -1
-75 -101 -157 -221 -83 -120 -166 -240 -185 -267 -19 -27 -54 -77 -78 -112
-24 -35 -70 -101 -102 -148 -32 -47 -83 -120 -112 -162 -29 -43 -78 -113 -108
-157 -121 -175 -219 -317 -370 -536 -88 -126 -169 -245 -182 -262 -13 -18 -52
-75 -88 -127 -36 -53 -67 -95 -70 -95 -5 0 -38 47 -305 434 -57 83 -107 155
-112 160 -4 6 -32 46 -62 90 -30 44 -159 231 -286 415 -127 184 -258 373 -290
420 -246 356 -312 452 -346 500 -21 30 -64 93 -96 140 -32 46 -112 162 -178
257 -66 95 -149 215 -185 268 -36 53 -71 104 -78 113 -7 9 -46 64 -85 122 -40
58 -99 143 -131 190 -33 47 -78 112 -100 145 -23 33 -45 64 -49 70 -7 9 -337
486 -418 605 -21 30 -74 107 -118 170 -44 63 -109 158 -145 210 -36 52 -94
136 -128 186 -35 49 -115 165 -178 257 -63 92 -196 284 -295 427 -99 143 -225
325 -280 405 -109 158 -297 429 -317 458 -7 10 -51 74 -98 142 -47 68 -91 132
-98 142 -71 103 -228 329 -272 393 -30 44 -74 109 -98 143 -124 177 -457 660
-540 782 -53 77 -98 142 -102 145 -3 3 -40 57 -83 120 -43 63 -110 160 -148
215 -38 55 -93 134 -121 175 -28 41 -76 111 -107 155 -78 112 -378 547 -391
565 -5 8 -60 88 -122 177 -62 90 -149 215 -193 279 -43 63 -82 117 -85 119 -3
1 -25 -27 -50 -63z"/>
</g>
</svg>
